<svg id="Layer_1" data-name="Layer 1" xmlns="http://www.w3.org/2000/svg" viewBox="0 0 151.52 37.01"><defs><style>.cls-1{fill:#124c4c;}.cls-2{fill:#32787a;}</style></defs><path class="cls-1" d="M-1189.06-101.72A5.58,5.58,0,0,1-1193-103a4.32,4.32,0,0,1-1.37-3.36,3.85,3.85,0,0,1,1.42-3.14,9.11,9.11,0,0,1,4.39-1.63l4-.62v-.14c0-1.47-.9-2.21-2.7-2.21s-2.61.62-2.78,1.84h-4a5.54,5.54,0,0,1,1.83-3.7,7.14,7.14,0,0,1,4.93-1.49,7.32,7.32,0,0,1,4.94,1.46,5.24,5.24,0,0,1,1.66,4.13v7.08a6.84,6.84,0,0,0,.43,2.69h-3.93s0-.06-.06-.2,0-.33-.07-.61a7.94,7.94,0,0,1,0-.85C-1185.24-102.39-1186.82-101.72-1189.06-101.72Zm4.56-7.08-3.61.6c-1.53.27-2.3.85-2.3,1.76s.76,1.57,2.27,1.57a3.76,3.76,0,0,0,2.69-.91,3.22,3.22,0,0,0,1-2.42Z" transform="translate(1232.49 129.01)"/><path class="cls-1" d="M-1167.73-108.54v-8.55h4.07v15h-3.76v-1.83q-1.17,2.18-4.41,2.18a5.12,5.12,0,0,1-4.06-1.62,6.43,6.43,0,0,1-1.42-4.37v-9.38h4.07v8.92c0,2,.83,3,2.5,3a2.87,2.87,0,0,0,2.25-.86A3.62,3.62,0,0,0-1167.73-108.54Z" transform="translate(1232.49 129.01)"/><path class="cls-1" d="M-1146.18-117.09l-5.43,7.4,5.6,7.62h-4.9l-3.15-4.29-3.15,4.29h-4.91l5.61-7.62-5.43-7.4h4.9l3,4.06,3-4.06Z" transform="translate(1232.49 129.01)"/><path class="cls-1" d="M-1140.65-119.72a2.37,2.37,0,0,1-1.77.68,2.4,2.4,0,0,1-1.78-.68,2.37,2.37,0,0,1-.69-1.75,2.39,2.39,0,0,1,.69-1.76,2.38,2.38,0,0,1,1.78-.71,2.36,2.36,0,0,1,1.77.71,2.39,2.39,0,0,1,.69,1.76A2.37,2.37,0,0,1-1140.65-119.72Zm-3.81,17.65v-15h4.07v15Z" transform="translate(1232.49 129.01)"/><path class="cls-1" d="M-1132.59-102.07h-4.07v-21.49h4.07Z" transform="translate(1232.49 129.01)"/><path class="cls-1" d="M-1125-119.72a2.4,2.4,0,0,1-1.78.68,2.4,2.4,0,0,1-1.78-.68,2.36,2.36,0,0,1-.68-1.75,2.38,2.38,0,0,1,.68-1.76,2.38,2.38,0,0,1,1.78-.71,2.38,2.38,0,0,1,1.78.71,2.39,2.39,0,0,1,.69,1.76A2.37,2.37,0,0,1-1125-119.72Zm-3.81,17.65v-15h4.07v15Z" transform="translate(1232.49 129.01)"/><path class="cls-1" d="M-1111.64-108.54v-8.55h4.07v15h-3.75v-1.83q-1.18,2.18-4.42,2.18a5.08,5.08,0,0,1-4-1.62,6.38,6.38,0,0,1-1.42-4.37v-9.38h4.07v8.92c0,2,.83,3,2.49,3a2.84,2.84,0,0,0,2.25-.86A3.57,3.57,0,0,0-1111.64-108.54Z" transform="translate(1232.49 129.01)"/><path class="cls-1" d="M-1090.37-110.61v8.54h-4.07V-111c0-2-.8-3-2.41-3a2.72,2.72,0,0,0-2.16.86,3.44,3.44,0,0,0-.76,2.38v8.62h-4.07v-15h3.75v1.84q1.18-2.18,4.33-2.18a4.83,4.83,0,0,1,4.36,2.12,6.43,6.43,0,0,1,5-2.12,5,5,0,0,1,4,1.63,6.45,6.45,0,0,1,1.4,4.36v9.37H-1085V-111c0-2-.8-3-2.4-3a2.7,2.7,0,0,0-2.18.87A3.64,3.64,0,0,0-1090.37-110.61Z" transform="translate(1232.49 129.01)"/><path class="cls-1" d="M-1212.67-102a3.34,3.34,0,0,0,2.81-1.27c.27-.39.54-.78.83-1.15a7,7,0,0,0,1.48-4.48,2.82,2.82,0,0,1,.21-1,.68.68,0,0,1,.7-.54c.39,0,.53.31.62.63a1.68,1.68,0,0,1,.07.5,33.49,33.49,0,0,1-.2,3.62,7.76,7.76,0,0,1-.84,2.25c-.54,1-1.17,2-1.78,3a3.48,3.48,0,0,1-1.59,1.37q-1.31.6-2.61,1.23a6.7,6.7,0,0,0-1,.62,2.31,2.31,0,0,0-1,2c.06.85.14,1.69.21,2.54,0,.2,0,.41,0,.65h-9c0-.42.08-.83.11-1.23.06-.64.11-1.28.16-1.92a2.22,2.22,0,0,0-1.06-2.1,23.78,23.78,0,0,0-2.29-1.21c-.43-.22-.87-.42-1.32-.62a3.29,3.29,0,0,1-1.5-1.28c-.68-1.1-1.33-2.23-2-3.34a6.25,6.25,0,0,1-.79-3.08c0-.82-.08-1.64-.09-2.46a2.08,2.08,0,0,1,.18-.81.57.57,0,0,1,1.06-.06,3.39,3.39,0,0,1,.36,1.17c.1.58.07,1.18.18,1.75a5.11,5.11,0,0,0,.54,1.52c.51.87,1.11,1.7,1.7,2.53a3.3,3.3,0,0,0,2.63,1.14l.11-.11c-.48-.61-1-1.24-1.46-1.84-.28-.33-.65-.58-.91-.91a1.73,1.73,0,0,1-.38-.81c-.1-.78.43-1.21,1.17-.92a2.46,2.46,0,0,1,.89.6,15.16,15.16,0,0,0,4.24,3.22,9.23,9.23,0,0,1,1.61,1.11,3.67,3.67,0,0,1,1.18,1.69,2.79,2.79,0,0,0,.15.3c.06,0,.1-.07.11-.1a4.84,4.84,0,0,1,2.55-2.81,16.63,16.63,0,0,0,4.65-3.5,2.18,2.18,0,0,1,.68-.47.94.94,0,0,1,1.09.1,1,1,0,0,1,.11,1.13,3.79,3.79,0,0,1-.75.94,9,9,0,0,0-1.7,2A2.66,2.66,0,0,0-1212.67-102Z" transform="translate(1232.49 129.01)"/><path class="cls-2" d="M-1229.38-105.88a3.13,3.13,0,0,1-.56-1.7q0-1.42,0-2.85a3.4,3.4,0,0,1,1.26-2.71,8.84,8.84,0,0,1,3-1.55c.7-.24,1.41-.43,2.11-.67a.52.52,0,0,1,.59.14,5.41,5.41,0,0,0,3.82,1.63,5.36,5.36,0,0,0,3.7-1.61.59.59,0,0,1,.7-.15c1.22.46,2.47.85,3.68,1.36a5.82,5.82,0,0,1,1.51,1,3.18,3.18,0,0,1,1.09,2.49c0,.93,0,1.86,0,2.8a3.29,3.29,0,0,1-.56,1.81c0-.09,0-.13-.06-.17a1.63,1.63,0,0,0-2.46-1.23,3.72,3.72,0,0,0-1,.76,14.47,14.47,0,0,1-4,3,7.14,7.14,0,0,0-2.6,2.11,4.82,4.82,0,0,0-.69-.73,18.13,18.13,0,0,0-2.19-1.51,13.48,13.48,0,0,1-3.51-2.67,5.2,5.2,0,0,0-1.14-.9,1.65,1.65,0,0,0-2.6,1.18A.39.39,0,0,1-1229.38-105.88Z" transform="translate(1232.49 129.01)"/><path class="cls-2" d="M-1219.2-129a16.77,16.77,0,0,1,1.88.32,4.72,4.72,0,0,1,3.44,4.19c0,.31,0,.62.07.92a3.68,3.68,0,0,0,.22.94,3.43,3.43,0,0,1-.52,2.86,2.06,2.06,0,0,0-.41.6,8.65,8.65,0,0,1-2.08,3,3.66,3.66,0,0,1-5.24,0,8.72,8.72,0,0,1-2.1-3,2.24,2.24,0,0,0-.42-.6,3.13,3.13,0,0,1-.37-3,1.5,1.5,0,0,0,.09-.52,14.53,14.53,0,0,1,.28-2.1,4.72,4.72,0,0,1,4.27-3.46l.88,0Z" transform="translate(1232.49 129.01)"/></svg>